<svg width="200" height="200" viewBox="0 0 200 200" fill="none" xmlns="http://www.w3.org/2000/svg">
<circle cx="120.705" cy="81.5079" r="9.04915" fill="#FFCD73"/>
<path fill-rule="evenodd" clip-rule="evenodd" d="M48.2531 34.4646C54.4679 34.4646 59.5061 39.5028 59.5061 45.7177V86.2286C59.5061 117.303 84.6969 142.494 115.771 142.494H124.774C130.989 142.494 136.027 147.532 136.027 153.747C136.027 159.962 130.989 165 124.774 165H115.771C72.2671 165 37 129.733 37 86.2286V45.7177C37 39.5028 42.0382 34.4646 48.2531 34.4646Z" fill="#2196F3"/>
<path fill-rule="evenodd" clip-rule="evenodd" d="M120.273 56.9707C106.6 56.9707 95.5165 68.0547 95.5165 81.7274C95.5165 95.4002 106.6 106.484 120.273 106.484C129.579 106.484 137.703 101.354 141.942 93.7141C144.958 88.2798 151.807 86.319 157.242 89.3345C162.676 92.35 164.637 99.1999 161.621 104.634C153.575 119.135 138.083 128.99 120.273 128.99C94.1707 128.99 73.0104 107.83 73.0104 81.7274C73.0104 55.6249 94.1707 34.4646 120.273 34.4646C138.083 34.4646 153.575 44.3198 161.621 58.8206C164.637 64.2549 162.676 71.1048 157.242 74.1203C151.807 77.1358 144.958 75.175 141.942 69.7407C137.703 62.1007 129.579 56.9707 120.273 56.9707Z" fill="#1DE9B6"/>
<circle cx="120.272" cy="81.7275" r="9.00244" fill="#01033F"/>
</svg>
